<svg width="200" height="207" version="1.1" xmlns="http://www.w3.org/2000/svg">
 <style>.prefix__cpt{fill:#fff}</style>
 <path d="m200 125.58c-0.17509 1.6808-0.24512 3.3967-0.52526 5.0775-0.91046 5.5328-3.5368 10.015-8.3692 13.062-0.2101 0.14007-0.42021 0.38519-0.56028 0.5953-3.7819 7.1436-8.6143 13.552-13.832 19.68-0.5953 0.66533-0.80541 1.3657-0.77039 2.2761 0.17509 5.6028-0.87544 10.96-2.9415 16.143-1.4707 3.7119-3.1166 7.3187-5.3927 10.61-3.5368 5.1126-7.949 9.2096-14.042 11.206-5.4978 1.7859-11.136 2.4512-16.878 2.2411-4.097-0.14007-8.1591-0.35018-12.186-1.0855-5.0775-0.94548-9.8749-2.5913-13.902-5.918-0.59529-0.49025-1.1906-1.1556-1.5408-1.8559-0.94547-1.8559-2.4512-2.8714-4.3422-3.4317-2.8014-0.84042-5.6378-1.1556-8.5093-0.38519-1.7859 0.45523-3.1516 1.4357-4.2021 2.9765-0.84042 1.2606-1.7509 2.5563-2.8014 3.6418-1.6458 1.7509-3.922 2.5213-6.093 3.4317-5.0775 2.101-10.435 2.8014-15.828 3.0115-3.3967 0.14007-6.8284 0.24512-10.225 0-4.5173-0.31516-8.9995-1.1556-13.167-3.1166-4.4472-2.101-7.949-5.2876-10.785-9.2446-2.3112-3.2566-4.1321-6.7584-5.6728-10.47-1.8559-4.4472-2.9765-9.1046-3.2916-13.902-0.10505-1.2956 0-2.6263-0.03502-3.957 0-0.42021-0.17509-0.87543-0.42021-1.1906-3.1866-4.1321-6.4782-8.1941-9.5598-12.431-1.6108-2.2411-2.8014-4.7624-4.2371-7.1436-0.35018-0.5953-0.84042-1.1906-1.4007-1.5758-4.7974-3.2566-7.3187-7.8439-8.1591-13.447-0.5953-3.8519-0.49025-7.6688 1.1906-11.276 1.6808-3.5718 4.097-6.5483 7.2836-8.8594 2.3462-1.6808 4.8324-3.1166 7.2486-4.6924 0.2101-0.14007 0.45523-0.49024 0.42021-0.70035-0.91046-4.4472-1.1556-8.9295-1.5058-13.412 0-0.03502-0.03502-0.03502-0.07004-0.17509-0.49024-0.10505-1.0855-0.2101-1.6458-0.35018-0.94547-0.2101-1.6458-0.70035-1.7159-1.7159-0.07004-1.5408-0.14007-3.1516 0.03502-4.6923 0.17509-1.4707 1.0155-1.996 2.5563-1.961 1.1556 0.03502 1.1556 0.03502 1.2956-1.1206 0.56028-4.7624 1.4357-9.4547 2.7314-14.077 0.31516-1.1556 0.98049-1.8559 2.2061-1.8909 1.961-0.07003 3.922-0.17509 5.8479-0.17509 1.0505 0 1.7509-0.56028 1.5408-1.6458-0.35018-2.031-0.07004-4.027 0.38519-5.988 0.14007-0.66533 0.63032-1.2256 0.94547-1.8209 0.24512-0.49024 0.5953-0.94547 0.63032-1.4707 0.28014-3.3267 0.38519-6.6533 0.70035-9.98 0.5953-6.3032 1.6808-12.536 3.992-18.489 2.4162-6.2331 6.1981-11.521 11.976-15.023 2.9415-1.7859 6.1981-3.1166 9.4197-4.3772 8.8244-3.4667 18.069-5.1476 27.489-5.8129 10.05-0.73537 20.135-0.84042 30.22-0.45523 8.1591 0.31516 16.143 1.4707 23.987 3.7819 4.7974 1.4007 9.4547 3.1516 13.832 5.5328 4.6573 2.5213 8.4042 6.023 11.171 10.61 3.3617 5.6028 5.0075 11.731 5.953 18.069 0.73537 5.1126 1.0505 10.295 1.5408 15.443 0.07 0.8054 0.31516 1.4707 0.84042 2.1711 0.56028 0.73537 0.91046 1.8209 1.0155 2.7664 0.17509 1.5758 0.14007 3.1866 0.14007 4.7624 0 1.1906 0.49025 1.6458 1.6458 1.6808 2.066 0.07004 4.1321 0.17509 6.1981 0.35018 1.2256 0.10505 1.926 0.87544 2.1711 2.031 0.84042 3.8869 1.6458 7.7739 2.4512 11.661 0.17508 0.8054 0.2101 1.6108 0.28014 2.4162 0.035 0.56028 0.24512 0.84042 0.84042 0.73537 1.7859-0.24512 2.9064 0.56028 2.9765 2.8014 0.035 1.1906 0.035 2.3462-0.07 3.5368-0.14007 1.2956-0.70035 1.7859-1.961 2.031-1.5408 0.31516-1.4707 0.31516-1.6108 1.8909-0.38519 3.7119-0.8054 7.3887-1.2956 11.066-0.17508 1.3307-0.24512 1.2956 0.91046 1.891 3.4317 1.7859 6.7234 3.8869 9.3497 6.7234 3.2216 3.5018 5.7429 7.4587 5.988 12.466 0 0.17508 0.07 0.38519 0.10505 0.56028 0.035 0.14007 0.035 0.28014 0.035 0.38519zm-90.555 59.565-0.10506 0.31515c0.49025 0.28014 0.98049 0.56028 1.4707 0.77039 1.1206 0.52526 1.2606 0.84042 0.98049 2.031-0.42021 1.6108-0.8054 3.2566-1.1906 4.9025-0.63031 2.6263 0.42021 4.5172 2.3812 6.1631 2.4162 2.066 5.3227 3.0815 8.2992 3.8869 9.7349 2.5563 19.54 2.5563 29.38 0.42021 6.5483-1.4007 11.591-5.0425 15.303-10.645 3.1166-4.6924 5.3577-9.7699 6.9335-15.128 2.4162-8.1941 2.3462-16.248-1.1906-24.197-1.996-4.4472-5.0075-7.8089-9.6648-9.4897-2.6964-0.94548-5.4277-1.7509-8.1591-2.5213-6.2331-1.8209-12.046-4.5173-17.579-7.8789-6.3382-3.8169-11.836-8.7544-17.334-13.657-3.6768-3.2916-7.6338-5.988-12.151-7.984-4.4122-1.961-8.8244-1.7859-13.237-0.10505-3.5368 1.3307-6.6183 3.3967-9.4897 5.7779-3.922 3.2566-7.7039 6.6533-11.626 9.91-4.4122 3.6768-9.1396 6.9335-14.322 9.4897-4.1671 2.066-8.4042 3.8169-12.851 5.1126-2.6613 0.77038-5.3227 1.5408-7.8789 2.5913-2.6613 1.0855-4.9725 2.7664-6.7234 5.1126-1.8559 2.4862-2.8014 5.3227-3.7819 8.1941-1.7859 5.2526-1.7509 10.645-0.73537 16.038 0.98049 5.2176 2.9065 10.085 5.4277 14.742 1.2956 2.4162 2.6263 4.7974 4.4122 6.9335 2.6263 3.1516 5.7429 5.6378 9.6298 7.0735 4.6923 1.7158 9.5948 2.4862 14.567 2.6613 5.6728 0.2101 11.311-0.07 16.843-1.4357 3.8519-0.94547 7.6338-1.961 10.75-4.6223 1.8559-1.6108 2.8714-3.5018 2.2761-5.988-0.35018-1.4007-0.70035-2.8364-1.0505-4.2371-0.52526-2.101-0.52526-2.101 1.4007-3.1166 0.31516-0.17509 0.5953-0.45523 0.87544-0.70035-0.03502-0.07-0.10505-0.14007-0.14007-0.21011-0.38519 0.07-0.77039 0.10505-1.1556 0.17509-0.38519 0.07-0.77038 0.17509-1.1556 0.24512-1.0855 0.17509-1.5408-0.035-1.8559-1.0855-1.1556-3.922-2.2761-7.8439-3.3617-11.766-0.17509-0.66533 0.10505-1.0855 0.77038-1.2606 0.52526-0.14007 1.0505-0.38519 1.6108-0.49024 0.94547-0.17509 1.0855-0.73537 1.0855-1.5758-0.07004-2.2061-0.14007-4.4122-0.10505-6.6183 0-1.0505 0.49024-1.4357 1.5408-1.4707 0.63032-0.035 1.2956 0.035 1.926 0.035 1.1206-0.035 1.3307-0.35017 0.87544-1.3307-0.38519-0.87544-0.8054-1.7159-1.2606-2.5563-0.38519-0.70035-0.31516-1.3307 0.14007-1.961 1.2956-1.7859 3.0815-2.6964 5.1826-3.1166 0.94547-0.17509 1.5058 0.10505 2.066 0.84042 0.84042 1.1206 1.7859 2.1711 2.8014 3.3617 1.0155-1.2256 1.8909-2.3812 2.8714-3.4667 0.35018-0.38519 0.91046-0.87544 1.4007-0.87544 2.3812 0.07 4.3072 1.0505 5.7079 3.0115 0.49024 0.70035 0.56028 1.4357 0.17509 2.2061-0.42021 0.8054-0.84042 1.6458-1.1906 2.4862-0.35017 0.84042-0.10505 1.1556 0.77039 1.1556 0.49024 0 0.94547 0 1.4357-0.035 1.8559-0.07 2.2411 0.28014 2.2411 2.1361 0 1.7859-0.07 3.5718-0.10506 5.3577-0.035 1.4357-0.035 1.4357 1.2956 1.891 2.1711 0.73536 2.3112 0.94547 1.7859 3.1166-0.035 0.07-0.035 0.17509-0.07 0.24513-1.0155 3.5368-2.031 7.0385-3.0115 10.575-0.2101 0.70035-0.63031 0.94547-1.2956 0.87543-0.42021-0.07-0.84042-0.14007-1.2256-0.2101-0.66533 0.035-1.1556-0.035-1.6108-0.10505zm58.724-130.58c0.035-0.38519 0.07-0.63032 0.035-0.91046-0.42021-5.6728-0.66533-11.346-1.7159-16.948-1.0855-5.7429-2.6263-11.276-5.7779-16.248-2.1361-3.3267-4.7624-6.1631-8.054-8.2992-4.2021-2.6963-8.8244-4.4822-13.552-6.023-7.1436-2.3112-14.497-3.5368-21.991-4.1321-6.5483-0.52526-13.097-0.45523-19.645-0.38519-7.7039 0.070035-15.373 0.45523-23.007 1.6108-8.1941 1.2606-16.073 3.5018-23.602 6.9685-6.3732 2.9065-10.855 7.7039-13.902 13.902-2.5563 5.2526-3.6768 10.995-4.4122 16.738-0.49024 3.8519-0.66533 7.7389-0.94547 11.626-0.07004 0.70035 0 1.4357 0 2.1361 0.14007 0.03502 0.24512 0.07003 0.31516 0.07003l0.84042-0.10505c13.797-2.7314 27.699-4.4472 41.741-5.0425 7.5988-0.31516 15.233-0.42021 22.831-0.56028 12.396-0.24512 24.757 0 37.084 0.98049 9.7699 0.77038 19.47 2.031 29.135 3.8169 1.5058 0.24512 3.0115 0.49024 4.6223 0.8054zm-122.04 86.108c0.87544-0.49025 1.6458-0.91046 2.4162-1.3307 2.7664-1.4357 5.5678-2.7314 8.2641-4.2721 5.2526-3.0465 9.7699-6.9685 13.937-11.381 4.7974-5.1126 9.5598-10.19 14.462-15.233 2.5563-2.6263 5.4977-4.7974 8.8594-6.3032 4.8324-2.1361 9.5248-1.6108 14.077 1.0856 3.6768 2.1711 6.8284 4.9725 9.7349 8.054 4.9725 5.1826 9.8399 10.435 14.847 15.513 3.8519 3.887 8.3692 7.0035 13.237 9.5598 2.4862 1.2956 5.0425 2.3812 7.5638 3.6068 0.42021 0.2101 0.5953 0.035 0.77039-0.31516 0.70035-1.4007 1.4007-2.8014 2.1711-4.1671 1.6108-2.8364 3.2916-5.6728 4.9375-8.4742 1.3657-2.2761 2.6613-4.5873 3.3617-7.2136 1.2606-4.6924-0.35017-9.5948-5.6728-11.661-1.2956-0.52526-2.6613-0.8054-4.027-1.2256-8.2992-2.4862-15.898-6.4432-23.006-11.381-3.992-2.7664-7.8439-5.7779-11.696-8.7544-3.957-3.0115-7.949-5.918-12.571-7.8089-5.0775-2.066-10.19-2.2411-15.303-0.17509-4.3422 1.7509-8.089 4.4122-11.766 7.2136-4.6923 3.5718-9.3847 7.2136-14.217 10.575-6.4082 4.4472-13.342 7.914-20.765 10.33-2.1711 0.70035-4.4472 1.0855-6.4782 2.2761-3.2216 1.926-5.2876 5.7779-4.4472 9.5598 0.56028 2.5213 1.5058 4.8324 2.8014 7.0735 2.5913 4.3772 5.1126 8.8244 7.6338 13.237 0.35018 0.45523 0.5953 1.0505 0.87544 1.6108zm-13.832-60.125c0.10505 0 0.2101 0 0.31516-0.03502 0.28014 1.5058 0.52526 3.0115 0.8054 4.5173 0.66533 3.4667 1.2256 6.9335 2.031 10.365 0.63032 2.6263 1.6808 5.1476 3.922 6.8984 1.5058 1.1556 3.1516 2.101 4.7624 3.0816 0.24512 0.14007 0.66533 0.17508 0.94547 0.07 4.5173-1.4007 8.9295-3.1866 13.062-5.4627 7.1436-3.957 13.727-8.7544 20.17-13.727 3.7819-2.9065 7.5988-5.7429 11.871-7.8439 5.8829-2.9065 11.836-3.1516 17.859-0.73537 3.6068 1.4357 6.7934 3.6418 9.945 5.8829 5.8829 4.2021 11.661 8.5093 17.649 12.571 5.8479 3.922 12.221 6.8984 18.944 9.1046 0.35017 0.10505 0.8054 0.2101 1.1206 0.07 3.922-1.8209 7.2136-4.3422 8.3342-8.7544 0.98049-3.8869 1.6808-7.8089 2.4862-11.731 0.24512-1.1906 0.38519-2.3812 0.5953-3.5718h0.2101c0.17509 1.6808 0.42021 3.3617 0.52526 5.0775 0.31516 6.1631 0.73537 12.291 1.8559 18.349 0.28014 1.5058 0.31516 3.0465-0.49024 4.4122-0.73537 1.2256-1.6108 2.3812-2.4862 3.5368-0.31515 0.42021-0.45522 0.73537-0.35017 1.2606 0.2101 1.2606 0.35017 2.5563 0.49024 3.8169 0.035 0.28014 0.035 0.5953 0.07 0.87544l0.2101 0.10505c0.14007-0.17509 0.24513-0.35018 0.3852-0.52526 0.84042-1.1206 1.6808-2.2411 2.4862-3.3617 2.066-2.8364 2.8364-6.023 2.3462-9.5248-0.28014-2.1711-0.49024-4.3422-0.59529-6.5133-0.31516-7.1786-0.5953-14.322-0.80541-21.501-0.10505-3.6768 0-7.3537-0.035-10.995 0-1.5408-0.17509-1.6808-1.6808-1.996-12.186-2.5913-24.512-4.5173-36.943-5.2176-10.05-0.5953-20.135-0.98049-30.22-1.1906-6.1281-0.14007-12.256 0.14007-18.384 0.35018-10.05 0.35018-20.065 1.0155-30.045 2.3112-7.7039 1.0155-15.408 2.3112-22.971 3.992-1.5408 0.35018-1.6808 0.52526-1.7859 2.1361-0.03502 0.45523 0 0.91046 0 1.3307 0.03502 2.4862 0.17509 4.9725 0.10505 7.4587-0.10505 4.9725-0.24512 9.98-0.49024 14.952-0.28014 5.3577-0.70035 10.715-1.0505 16.073-0.17509 2.5563 0.2101 4.9725 1.5408 7.1786 0.77038 1.2606 1.6458 2.4862 2.4862 3.6768 0.42021 0.56028 0.87544 1.0855 1.3657 1.6808 0.2101-1.6108 0.28014-3.0815 0.5953-4.5173 0.17509-0.8054 0.03502-1.3307-0.56028-1.891-2.066-1.996-3.0115-4.4822-2.6613-7.3537 0.2101-1.8209 0.52526-3.6768 0.66533-5.4978 0.38519-4.9025 0.66533-9.8399 1.0155-14.742 0.14007-1.5058 0.24512-2.9765 0.38519-4.4472zm-8.089 82.571c0.14007-0.35017 0.17509-0.45523 0.2101-0.56028 0.63032-3.8519 1.8909-7.4587 3.6418-10.925 0.14007-0.24513 0.07003-0.73537-0.10505-0.98049-0.66533-1.1556-1.4357-2.2761-2.1711-3.3967-4.8324-7.6688-9.5248-15.443-13.447-23.602-0.31516-0.63032-0.63032-1.2256-0.98049-1.8559-0.2101 0.10505-0.35018 0.17509-0.45523 0.24512-2.6263 2.1711-4.5873 4.7274-4.4122 8.3342 0.070035 1.5058 0.24512 3.0115 0.5953 4.4822 0.94547 3.8869 2.9065 7.3537 4.7974 10.855 2.7314 5.1126 6.1631 9.7699 9.7349 14.357 0.8054 0.98049 1.6458 1.926 2.5913 3.0465zm164.44-41.881c-0.21011 0.38519-0.35018 0.63031-0.49025 0.87544-1.996 3.7469-3.8519 7.5288-5.988 11.171-3.2566 5.5678-6.6884 10.996-10.085 16.493-0.38519 0.5953-0.38519 1.0855-0.10505 1.7509 1.0505 2.5563 2.031 5.1476 2.9415 7.7389 0.35018 0.98049 0.49025 2.031 0.73537 3.2566 0.45523-0.49024 0.8054-0.8054 1.1206-1.1906 2.5213-3.3967 5.1826-6.7584 7.5638-10.26 3.5018-5.1826 6.7234-10.54 8.4742-16.598 0.49025-1.7159 0.66533-3.5718 0.63032-5.3577-0.035-2.3112-1.3657-4.1671-2.7664-5.8829-0.52526-0.73537-1.2606-1.2956-2.031-1.996zm-161.29-39.955h-0.14007c0-4.3772-0.03502-8.7894 0.03502-13.167 0-0.8054-0.28014-1.0155-1.0155-1.0155-1.5058 0.03502-3.0115-0.03502-4.5173 0.03502-1.6808 0.07004-1.7159 0.14007-2.2411 1.7859-0.14007 0.49024-0.35018 0.94547-0.42021 1.4357-0.56028 3.6418-1.1556 7.2836-1.6458 10.925-0.8054 6.4432-0.73537 12.886 0.07004 19.33 0.24512 1.8559 0.66533 3.6768 1.1206 5.4978 0.10505 0.45523 0.73537 0.98049 1.2256 1.0856 1.5758 0.35017 3.1866 0.49024 4.7974 0.73536 0.63032 0.10506 0.87544-0.2101 0.91046-0.77038 0.14007-1.5058 0.38519-3.0115 0.45523-4.5173 0.49024-7.1086 0.91046-14.217 1.3657-21.361zm145.29-2.5213c0.31516 6.8284 0.5953 13.202 0.94548 19.54 0.14007 2.7664 0.52526 5.4978 0.77038 8.2641 0.07 0.73537 0.28014 1.1906 1.1906 1.0505 1.3307-0.24513 2.6964-0.42021 4.062-0.56028 0.87544-0.10506 1.3657-0.52527 1.5408-1.3657 0.49024-2.4512 1.1906-4.9024 1.4707-7.3887 0.91046-7.4237 0.45523-14.882-0.70035-22.236-0.42021-2.7664-1.1906-5.4627-1.8209-8.1591-0.14007-0.63032-0.56028-0.91046-1.1556-0.91046-1.891-0.03502-3.7819-0.03502-5.7079-0.03502-0.52526 0-0.70035 0.24512-0.70035 0.8054 0.10505 3.7819 0.10505 7.6338 0.10505 10.995zm1.4007 32.321c-0.8054 1.4007-1.5408 2.8714-2.4862 4.2021-2.3462 3.3967-4.9725 6.6183-7.1786 10.12-2.5563 4.062-4.7624 8.3692-7.0735 12.571-0.45522 0.8054-0.70035 1.7159-1.0505 2.6263 1.7509 0.52526 3.3617 1.0505 4.9375 1.5058 0.17509 0.035 0.45523-0.14007 0.5953-0.31515 0.52526-0.66534 1.0155-1.3307 1.4707-2.031 3.922-5.918 7.7739-11.906 11.136-18.174 1.1556-2.1711 2.3462-4.3422 3.5018-6.5132 0.17509-0.31516 0.49025-0.63032 0-1.0155-1.2956-0.98049-2.5563-1.996-3.8519-2.9765zm-148.09 0.24512c-1.1556 0.91046-2.3112 1.891-3.5368 2.7664-0.66533 0.45522-0.70035 0.84042-0.31516 1.5058 2.9415 5.1126 5.7429 10.295 8.7894 15.373 2.2761 3.8169 4.8324 7.4587 7.2836 11.171 0.14007 0.21011 0.63032 0.31516 0.91046 0.24512 1.2606-0.31515 2.5213-0.73536 3.7819-1.0855 0.91046-0.24512 0.98049-0.35017 0.5953-1.1906-2.5913-5.8479-5.7429-11.381-9.4197-16.633-2.2061-3.1166-4.5173-6.1981-6.6883-9.3497-0.5953-0.87543-0.94547-1.8909-1.4007-2.8014zm-18.664 29.205c-0.10505-0.28014-0.2101-0.56028-0.28014-0.80541-0.5953-1.7158-1.2956-3.3967-1.7509-5.1826-1.0855-4.3422-0.31516-8.3342 2.7314-11.731 1.996-2.2411 4.5523-3.7119 6.9335-5.3927 1.961-1.3657 4.2721-2.2411 5.7779-4.2021 0.14007-0.17509 0.42021-0.28014 0.5953-0.45523 0.84042-0.70035 1.7159-1.3657 2.5213-2.066 0.28014-0.24513 0.42021-0.5953 0.70035-1.0155-0.77038-0.10505-1.3307-0.17509-1.926-0.24512-1.7159-0.24513-3.5018-0.35018-4.9725-1.3657-0.52526-0.38519-0.87544-0.35017-1.4007-0.10505-2.9415 1.2956-5.5678 3.1166-8.019 5.1476-2.5913 2.1361-4.7624 4.7274-5.6728 8.054-1.6458 5.7779-0.8054 11.311 2.066 16.563 0.63032 1.0855 1.4707 2.101 2.6963 2.8014zm185.49-0.52527c0.07 0.07 0.14007 0.10506 0.21011 0.17509 0.52526-0.5953 1.1556-1.1206 1.6108-1.7509 1.996-2.7664 2.9415-5.953 3.3617-9.2796 0.73537-5.883-0.66533-11.031-5.0775-15.198-2.7314-2.5913-5.6728-4.7974-9.1396-6.3032-0.31515-0.14007-0.87543-0.31515-1.0505-0.17508-1.1906 1.0155-2.6263 1.1906-4.062 1.4707-1.0155 0.17509-2.031 0.28014-3.2216 0.45523 0.31515 0.45523 0.49024 0.8054 0.8054 1.0505 0.98049 0.80541 2.031 1.5758 3.0465 2.3462 0.24513 0.2101 0.52527 0.42021 0.73537 0.63031 0.38519 0.3852 0.66533 0.87544 1.1206 1.1556 2.3812 1.5758 4.7974 3.0815 7.2136 4.5873 2.5213 1.5758 4.5523 3.6068 5.8479 6.3032 1.6108 3.3617 1.2606 6.7584 0.17509 10.155-0.45523 1.4707-1.0505 2.9065-1.5758 4.3772zm-162.34-6.7934c-2.7314 1.6458-5.3227 3.1866-7.8789 4.7624-0.14007 0.10505-0.24512 0.5953-0.10505 0.8054 0.52526 1.0155 1.1206 1.996 1.7509 2.9415 0.10505 0.17509 0.5953 0.35018 0.77038 0.24512 2.5563-1.4707 5.0425-3.0115 7.5638-4.5172 0.14007-0.10506 0.28014-0.45523 0.2101-0.5953-0.73537-1.1906-1.5058-2.3812-2.3112-3.6418zm136.53 3.5718c0.17508 0.10506 0.28014 0.17509 0.35017 0.24513 2.5213 1.5058 5.0425 3.0115 7.5988 4.4822 0.17509 0.10505 0.66533-0.035 0.77039-0.21011 0.63031-0.98049 1.2256-1.996 1.7859-3.0465 0.10505-0.17509-0.035-0.66533-0.2101-0.77039-2.4162-1.4707-4.8674-2.8714-7.2836-4.3422-0.38519-0.2101-0.59529-0.17509-0.8054 0.21011-0.70035 1.0855-1.4007 2.2061-2.2061 3.4317zm-139.51-8.5092c-0.14007 0.035-0.28014 0.035-0.35018 0.10505-2.4862 1.4707-4.9375 2.9415-7.4237 4.4122-0.42021 0.24512-0.38519 0.56028-0.17509 0.91045 0.52526 0.91046 1.0155 1.7859 1.5058 2.6964 0.24512 0.45523 0.49024 0.52526 0.94547 0.24512 2.4162-1.4707 4.8324-2.9064 7.2486-4.3422 0.38519-0.2101 0.45523-0.45523 0.2101-0.8054-0.66533-1.0505-1.2956-2.1361-1.961-3.2216zm151.1 8.2992c0.70035-1.2256 1.3307-2.3462 1.926-3.5018 0.07-0.14007-0.07-0.52527-0.21011-0.5953-2.4162-1.4707-4.8674-2.9415-7.3537-4.3772-0.14007-0.07-0.52526 0-0.59529 0.10505-0.70035 1.0856-1.3657 2.2411-2.101 3.4317 2.8364 1.6458 5.5328 3.2566 8.3342 4.9375zm-151.91-9.8049c-0.8054-1.3307-1.3657-2.3112-1.996-3.2566-0.03502-0.07-0.38519 0-0.52526 0.07-2.3812 1.4357-4.7274 2.8714-7.0735 4.3072-0.35018 0.21011-0.52526 0.45523-0.28014 0.87544 0.42021 0.73537 0.84042 1.5058 1.2256 2.2761 0.2101 0.38519 0.42021 0.52526 0.84042 0.28014 2.3462-1.4357 4.7274-2.8714 7.0735-4.3072 0.24512-0.10506 0.49024-0.17509 0.73537-0.24513zm148.75-3.7469c-0.14007 0.14007-0.28014 0.28014-0.3852 0.45523-0.42021 0.73537-0.8054 1.4707-1.2606 2.1711-0.28014 0.45523-0.17508 0.77039 0.24513 1.0505 2.3462 1.4007 4.6573 2.8364 7.0385 4.2371 0.17508 0.10505 0.66533-0.035 0.77038-0.21011 0.45523-0.70035 0.8054-1.4707 1.2606-2.1711 0.31516-0.52527 0.21011-0.80541-0.31516-1.1206-2.2761-1.3307-4.5523-2.7314-6.8284-4.097-0.14007-0.10505-0.28014-0.21011-0.52526-0.31516zm-150.05 20.59c0.45523 0.8054 0.91046 1.5058 1.2956 2.2411 0.35018 0.66533 0.66533 0.8054 1.3657 0.38519 1.996-1.2956 4.062-2.4512 6.058-3.7469 1.8209-1.1556 1.996-0.5953 0.5953-2.6964-0.14007-0.24512-0.31516-0.45523-0.45523-0.70035-0.24512-0.42021-0.49024-0.56028-1.0155-0.24512-1.3657 0.84042-2.7664 1.6108-4.1321 2.4162-1.1906 0.77039-2.4162 1.5408-3.7119 2.3462zm140.77-5.5328c-0.5953 0.91046-1.1556 1.7159-1.6108 2.5563-0.10505 0.17509 0.07 0.63031 0.28014 0.77038l7.3537 4.5173c0.38519 0.24513 0.66533 0.21011 0.87544-0.2101 0.35017-0.5953 0.66533-1.2256 1.0855-1.7859 0.42021-0.52526 0.31516-0.84042-0.24512-1.1906-2.5213-1.5058-5.0775-3.0465-7.7389-4.6573zm18.104-11.801c0.38519-0.66533 0.70035-1.2256 1.0155-1.8209 0.31516-0.56028 0.17509-0.94547-0.38519-1.2956-2.1361-1.2256-4.2371-2.5213-6.3382-3.7819-0.94548-0.56028-0.98049-0.56028-1.4707 0.38519-0.17509 0.35018-0.35017 0.70035-0.56028 1.0155-0.24512 0.42021-0.2101 0.70035 0.21011 0.94547 2.4512 1.5058 4.9024 3.0115 7.5288 4.5523zm-160.49-4.4822c-0.42021-0.8054-0.77038-1.5408-1.1906-2.2061-0.07003-0.14007-0.52526-0.17508-0.66533-0.07-2.3462 1.4007-4.6923 2.8364-7.0035 4.2721-0.17509 0.10505-0.35018 0.45522-0.31516 0.59529 0.31516 0.77039 0.66533 1.5058 1.0505 2.3462 2.8014-1.6808 5.4277-3.2916 8.1241-4.9375zm-10.085 0.98049c2.6263-1.6108 5.1476-3.1166 7.6338-4.6573 0.14007-0.10505 0.24512-0.45523 0.17509-0.63032-0.28014-0.59529-0.5953-1.1556-1.0155-1.8909-2.5213 1.6458-4.9375 3.2216-7.3537 4.8324-0.14007 0.10506-0.28014 0.45523-0.2101 0.63032 0.2101 0.5953 0.49024 1.1206 0.77038 1.7159zm173.55-2.3112c-0.17509-0.17509-0.35018-0.42021-0.56028-0.56028-1.926-1.2256-3.8519-2.4862-5.8129-3.6768-1.5408-0.94547-1.5758-0.91045-2.3112 0.77039-0.21011 0.42021-0.17509 0.70035 0.28014 0.94547 2.3112 1.3657 4.5873 2.7664 6.8984 4.1321 0.17508 0.10505 0.56028 0.14007 0.63031 0.035 0.31516-0.49025 0.56028-1.0505 0.87544-1.6458zm-16.493 28.609c0.17509-0.21011 0.35018-0.42021 0.49025-0.63032 0.63031-0.91045 0.63031-0.94547-0.28014-1.5408-1.7859-1.1206-3.5718-2.2061-5.3227-3.3267-0.59529-0.35018-1.1906-0.70035-1.8209-1.0505-0.14007-0.07-0.35017 0-0.52526 0.035 0.07 0.17509 0.07 0.38519 0.17509 0.49025 0.2101 0.17508 0.49024 0.28014 0.73537 0.42021 1.1206 0.73536 2.2761 1.4007 3.2916 2.2761 1.1206 0.98049 2.101 2.1361 3.2566 3.3267zm-141.51 0.52526c0.24512-0.28014 0.42021-0.45523 0.56028-0.5953 0.84042-0.91045 1.5758-1.926 2.5213-2.6963 1.2956-1.0155 2.7314-1.8559 4.097-2.7664 0.17509-0.10505 0.24512-0.35017 0.38519-0.52526-0.2101-0.035-0.45523-0.14007-0.5953-0.035-2.5213 1.5408-5.0075 3.0815-7.4937 4.6223-0.38519 0.24513-0.49024 0.49025-0.2101 0.87544 0.2101 0.31516 0.42021 0.66533 0.73537 1.1206z" stroke-width=".35018"/>
 <path class="prefix__cpt" d="m109.44 185.15c0.49024 0.07 0.94547 0.10505 1.4357 0.17508 0.42021 0.07 0.84042 0.14007 1.2256 0.21011 0.66533 0.10505 1.1206-0.17509 1.2956-0.87544 1.0155-3.5368 2.031-7.0385 3.0115-10.575 0.035-0.07 0.035-0.17509 0.07-0.24512 0.52526-2.1711 0.38519-2.3812-1.7859-3.1166-1.3307-0.45523-1.3307-0.45523-1.2956-1.8909 0.035-1.7859 0.10505-3.5718 0.10505-5.3577 0-1.8559-0.38519-2.2061-2.2411-2.1361-0.49025 0-0.94548 0.035-1.4357 0.035-0.87544 0-1.1206-0.31516-0.77039-1.1556 0.35018-0.84042 0.77039-1.6808 1.1906-2.4862 0.42021-0.77038 0.35017-1.5058-0.17509-2.2061-1.4007-1.961-3.3617-2.9415-5.7078-3.0115-0.45523 0-1.0155 0.49024-1.4007 0.87543-0.98049 1.0856-1.8559 2.2061-2.8714 3.4667-0.98049-1.1906-1.961-2.2411-2.8014-3.3617-0.56028-0.73537-1.1556-1.0155-2.066-0.84042-2.1361 0.42021-3.8869 1.3307-5.1826 3.1166-0.45523 0.63032-0.52526 1.2606-0.14007 1.961 0.45523 0.84042 0.87544 1.6808 1.2606 2.5563 0.45523 1.0155 0.24512 1.2956-0.87544 1.3307-0.63032 0.035-1.2956-0.035-1.926-0.035-1.0505 0.035-1.5408 0.42021-1.5408 1.4707 0 2.2061 0.03502 4.4122 0.10505 6.6183 0.03502 0.84042-0.14007 1.4007-1.0855 1.5758-0.56028 0.10506-1.0505 0.35018-1.6108 0.49025-0.66533 0.17509-0.94547 0.5953-0.77039 1.2606 1.1206 3.922 2.2061 7.8439 3.3617 11.766 0.31516 1.0505 0.77039 1.2606 1.8559 1.0856 0.38519-0.07 0.77039-0.17509 1.1556-0.24513 0.38519-0.07 0.77039-0.14007 1.1556-0.17508 0.03502 0.07 0.10505 0.14007 0.14007 0.2101-0.28014 0.24512-0.56028 0.52526-0.87544 0.70035-1.926 1.0155-1.926 1.0155-1.4007 3.1166 0.35018 1.4007 0.70035 2.8364 1.0505 4.2371 0.5953 2.5213-0.42021 4.4122-2.2761 5.988-3.1166 2.6613-6.8984 3.7119-10.75 4.6223-5.5328 1.3657-11.206 1.6458-16.843 1.4357-4.9725-0.17509-9.8749-0.98049-14.567-2.6613-3.8869-1.4007-7.0035-3.922-9.6298-7.0735-1.7509-2.101-3.1166-4.4822-4.4122-6.9335-2.4862-4.6924-4.4472-9.5598-5.4277-14.742-1.0155-5.3577-1.0505-10.75 0.73537-16.038 0.98049-2.8714 1.926-5.7078 3.7819-8.1941 1.7509-2.3462 4.062-4.027 6.7234-5.1126 2.5563-1.0505 5.2176-1.8209 7.8789-2.5913 4.4472-1.2606 8.7194-3.0465 12.851-5.1126 5.1826-2.5563 9.8749-5.8129 14.322-9.4898 3.922-3.2566 7.7039-6.6533 11.626-9.91 2.8714-2.3812 5.953-4.4472 9.4897-5.7779 4.4122-1.6808 8.8244-1.8559 13.237 0.10505 4.4822 1.996 8.4742 4.7274 12.151 7.984 5.4978 4.9024 10.996 9.8399 17.334 13.657 5.5328 3.3267 11.346 6.058 17.579 7.8789 2.7314 0.8054 5.4978 1.5758 8.1591 2.5213 4.6573 1.6808 7.6688 5.0075 9.6648 9.4898 3.5718 7.914 3.6068 16.003 1.1906 24.197-1.5758 5.3577-3.8169 10.435-6.9335 15.128-3.7118 5.6028-8.7544 9.2096-15.303 10.645-9.8049 2.101-19.61 2.101-29.38-0.42021-2.9765-0.77039-5.8829-1.8209-8.2992-3.887-1.926-1.6458-3.0115-3.5718-2.3812-6.1631 0.38519-1.6458 0.77038-3.2566 1.1906-4.9024 0.31516-1.1556 0.17509-1.5058-0.98049-2.031-0.49024-0.24512-0.98049-0.52526-1.4707-0.77038 0.17508-0.17509 0.24512-0.28014 0.28014-0.38519zm15.443-8.9645c-0.45523 0-0.73537 0.035-1.0505 0-1.0855-0.14007-2.1711-0.28014-3.2216-0.45523-0.84042-0.10505-1.3307 0.28014-1.6458 0.9805-1.3307 2.8014-2.1361 5.7779-2.7314 8.7894-0.38519 1.926-0.45522 3.8519 0.84042 5.5328 1.3307 1.7509 2.9415 3.1166 4.9375 4.062 3.957 1.926 8.1591 2.8364 12.571 3.0115 6.1281 0.28014 11.906-0.87543 17.089-4.3772 3.2566-2.2411 5.8129-5.0075 6.9335-8.9645 1.5408-5.3227-0.35017-11.346-4.9375-14.462-5.2176-3.5368-11.486-3.4667-17.054-0.07-1.5758 0.98049-2.9415 2.3112-4.3422 3.5718-2.2411 2.066-5.988 2.4512-7.949-0.42021-0.66533-0.98049-1.3657-1.996-1.891-3.0465-1.4007-2.9765-2.6964-6.023-4.062-9.0345-1.4707-3.1866-2.9064-6.4082-4.5173-9.5598-1.1206-2.2061-2.5913-4.2371-4.7274-5.5678-5.4978-3.4317-11.136-3.2916-16.773-0.42021-2.7314 1.4007-4.5523 3.8169-5.8829 6.4782-1.7159 3.4317-3.2216 6.9685-4.8324 10.435-1.6108 3.4317-3.1866 6.8984-4.9025 10.295-0.84042 1.6808-2.2061 2.8014-4.2371 2.8714-1.6808 0.07-3.1516-0.49025-4.3422-1.6458-2.3462-2.3112-4.9025-4.2021-8.089-5.2176-4.4122-1.4007-8.7194-1.0155-12.641 1.3657-7.8089 4.7274-7.8439 14.847-2.9065 20.275 4.7974 5.2526 10.89 7.6688 17.789 8.089 4.4472 0.28014 8.8244-0.28014 13.062-1.7859 2.4512-0.91046 4.7974-1.996 6.7234-3.8519 1.6108-1.5758 2.8014-3.3267 2.4862-5.7078-0.49025-3.6418-1.4707-7.1786-3.1166-10.505-0.31516-0.63032-0.87544-0.94548-1.6108-0.80541-0.70035 0.10506-1.3657 0.24513-2.066 0.31516-0.70035 0.10505-1.4007 0.14007-2.101 0.21011 0.10505-0.3852 0.28014-0.56029 0.42021-0.77039 0.77038-1.0155 1.7159-1.961 2.2411-3.1166 2.1711-4.5873 4.2021-9.2796 6.3382-13.902 1.0855-2.3112 2.1711-4.5873 3.4317-6.7934 1.2256-2.1711 2.9065-4.097 5.0775-5.3577 2.5913-1.5408 5.4978-1.8209 8.4392-1.6458 3.0115 0.17509 5.7429 1.1556 7.984 3.2566 1.996 1.8909 3.3267 4.2371 4.4472 6.6533 2.1361 4.6573 4.1671 9.3497 6.3032 14.007 1.1206 2.4162 2.101 4.9725 4.3072 6.7234 0 0.21011 0.035 0.31516 0.21011 0.56028zm43.282-121.62c-1.6108-0.28014-3.1166-0.56028-4.6223-0.84042-9.6298-1.7859-19.365-3.0115-29.135-3.8169-12.361-0.98049-24.722-1.2256-37.084-0.98049-7.5988 0.14007-15.233 0.24512-22.831 0.56028-14.042 0.5953-27.944 2.3112-41.741 5.0425-0.28014 0.07004-0.56028 0.10505-0.84042 0.10505-0.07004 0-0.17509-0.03502-0.31516-0.07004 0-0.70035-0.03502-1.4357 0-2.1361 0.28014-3.8869 0.45523-7.7739 0.94547-11.626 0.73537-5.7429 1.8209-11.486 4.4122-16.738 3.0115-6.1981 7.5288-10.995 13.902-13.902 7.5288-3.4667 15.408-5.7078 23.602-6.9685 7.6338-1.1556 15.303-1.5408 23.007-1.6108 6.5483-0.070035 13.097-0.10505 19.645 0.38519 7.4587 0.5953 14.847 1.8209 21.991 4.1321 4.7274 1.5408 9.3497 3.3267 13.552 6.023 3.3267 2.1361 5.953 4.9725 8.054 8.2992 3.1866 4.9725 4.7274 10.54 5.7779 16.248 1.0505 5.6028 1.2956 11.276 1.7159 16.948 0.035 0.28014 0 0.56028-0.035 0.94547z" stroke-width=".35018"/>
 <path class="prefix__cpt" d="m46.133 140.67c-0.28014-0.56028-0.52526-1.1556-0.84042-1.7159-2.5213-4.4122-5.0425-8.8244-7.6338-13.237-1.2956-2.2061-2.2761-4.5523-2.8014-7.0735-0.84042-3.7819 1.2606-7.6338 4.4472-9.5598 2.031-1.1906 4.3072-1.5758 6.4782-2.2761 7.4237-2.4162 14.357-5.8829 20.765-10.33 4.8324-3.3617 9.4897-7.0035 14.217-10.575 3.6768-2.8014 7.4587-5.4627 11.766-7.2136 5.1126-2.066 10.225-1.8909 15.303 0.17509 4.6573 1.8909 8.6493 4.7974 12.571 7.8089 3.8519 2.9415 7.7038 5.953 11.696 8.7544 7.0735 4.9375 14.672 8.8944 23.006 11.381 1.3307 0.42021 2.6964 0.70035 4.027 1.2256 5.3227 2.101 6.9335 7.0035 5.6728 11.661-0.70035 2.6263-1.996 4.9024-3.3617 7.2136-1.6808 2.8014-3.3267 5.6378-4.9375 8.4742-0.77038 1.3657-1.4707 2.7664-2.1711 4.1671-0.17509 0.35017-0.35018 0.52526-0.77039 0.31515-2.5213-1.1906-5.1126-2.2761-7.5638-3.6068-4.8324-2.5563-9.3497-5.6378-13.237-9.5598-5.0425-5.0775-9.91-10.365-14.847-15.513-2.9415-3.0465-6.058-5.8829-9.7349-8.054-4.5173-2.6613-9.2446-3.2216-14.077-1.0855-3.3617 1.5058-6.3032 3.6768-8.8594 6.3032-4.8674 5.0075-9.6648 10.12-14.462 15.233-4.1321 4.4122-8.6843 8.3342-13.937 11.381-2.6963 1.5408-5.4977 2.8364-8.2641 4.2721-0.8054 0.52526-1.5758 0.98049-2.4512 1.4357z" stroke-width=".35018"/>
 <path class="prefix__cpt" d="m32.301 80.549c-0.10505 1.4707-0.24512 2.9415-0.35018 4.3772-0.35018 4.9025-0.63032 9.8399-1.0155 14.742-0.14007 1.8559-0.45523 3.6768-0.66533 5.4977-0.35018 2.9064 0.5953 5.3577 2.6613 7.3537 0.5953 0.5953 0.73537 1.0855 0.56028 1.8909-0.28014 1.4357-0.38519 2.9065-0.5953 4.5173-0.49024-0.5953-0.94547-1.0855-1.3657-1.6808-0.84042-1.2256-1.7159-2.4162-2.4862-3.6768-1.3657-2.2061-1.7159-4.6573-1.5408-7.1786 0.35018-5.3577 0.77038-10.715 1.0505-16.073 0.24512-4.9725 0.38519-9.945 0.49024-14.952 0.07004-2.4862-0.07004-4.9725-0.10505-7.4587 0-0.45523-0.03502-0.91046 0-1.3307 0.10505-1.6108 0.24512-1.7859 1.7859-2.1361 7.5988-1.7159 15.268-2.9765 22.971-3.992 9.98-1.3307 19.995-1.961 30.045-2.3112 6.1281-0.2101 12.256-0.49024 18.384-0.35018 10.085 0.2101 20.135 0.63032 30.22 1.1906 12.466 0.73537 24.757 2.6263 36.943 5.2176 1.5058 0.31516 1.6458 0.45523 1.6808 1.996 0.035 3.6768-0.07 7.3537 0.035 10.995 0.21011 7.1786 0.49025 14.322 0.8054 21.501 0.10506 2.1711 0.31516 4.3422 0.5953 6.5133 0.49025 3.5018-0.28014 6.6533-2.3462 9.5248-0.84042 1.1206-1.6808 2.2411-2.4862 3.3617-0.14007 0.17509-0.24512 0.35018-0.38519 0.52526l-0.2101-0.10505c0-0.28014-0.035-0.5953-0.07-0.87544-0.14007-1.2606-0.28014-2.5563-0.49024-3.8169-0.10506-0.52527 0.035-0.87544 0.35017-1.2606 0.87544-1.1556 1.7509-2.3112 2.4862-3.5368 0.8054-1.3657 0.77038-2.9065 0.49024-4.4122-1.1206-6.058-1.5408-12.221-1.8559-18.349-0.10505-1.6808-0.35017-3.3617-0.52526-5.0775h-0.21011c-0.2101 1.1906-0.35017 2.3812-0.59529 3.5718-0.80541 3.922-1.4707 7.8789-2.4862 11.731-1.1206 4.4122-4.4122 6.9335-8.3342 8.7544-0.31516 0.14007-0.77039 0.07-1.1206-0.07-6.7234-2.1711-13.097-5.1476-18.944-9.1046-5.988-4.027-11.766-8.3692-17.649-12.571-3.1516-2.2411-6.3382-4.4122-9.945-5.8829-6.058-2.4162-12.011-2.1711-17.859 0.73537-4.3072 2.1361-8.1241 4.9725-11.871 7.8439-6.4432 4.9725-13.027 9.8049-20.17 13.727-4.1321 2.2761-8.5443 4.062-13.062 5.4627-0.28014 0.10505-0.70035 0.07-0.94547-0.07-1.6108-0.98049-3.2916-1.926-4.7624-3.0815-2.2411-1.7159-3.2916-4.2371-3.922-6.8984-0.8054-3.4317-1.3657-6.8984-2.031-10.365-0.28014-1.5058-0.52526-3.0115-0.8054-4.5173-0.14007 0.10505-0.24512 0.10505-0.35018 0.10505zm79.7-16.388v0.07004c-0.66533 0-1.3657-0.07004-1.996 0-1.1906 0.17509-2.4162 0.28014-3.1166 1.5058-0.84042 1.5408-0.31516 3.7119 1.2256 4.9725 0.66533 0.52526 1.4357 0.98049 2.2061 1.3657 3.3967 1.8209 6.9335 3.4317 10.225 5.3927 6.1631 3.6418 12.186 7.5288 18.279 11.276 2.4862 1.5408 4.9725 3.1166 7.5288 4.5523 3.1166 1.7159 5.8479 1.1906 8.019-1.4707 1.0505-1.2956 1.996-2.7314 2.6613-4.2371 1.1556-2.6963 2.101-5.4627 3.0115-8.2641 0.94547-2.9765 1.5758-6.023 1.6808-9.1396 0.07-1.7509-0.56028-2.5563-2.3112-2.9415-0.24512-0.03502-0.49024-0.10505-0.73536-0.10505-4.9024-0.2101-9.7699-0.42021-14.672-0.70035-5.6028-0.31516-11.171-0.70035-16.773-1.0855-5.0775-0.35018-10.155-0.77038-15.233-1.1906zm-68.809 3.1866v-0.07004c-0.66533 0-1.3307-0.03502-2.031 0-1.6458 0.10505-3.0815 0.77038-2.9415 2.9765 0.07003 1.1206 0.07003 2.2761 0.35018 3.3267 0.8054 3.2916 1.6458 6.5483 2.6613 9.8049 0.91046 2.9765 2.2411 5.8129 4.1321 8.2992 1.6458 2.1361 4.3772 3.7119 7.4587 2.1361 0.66533-0.35018 1.4007-0.5953 2.031-1.0155 5.3927-3.3967 10.785-6.7934 16.178-10.225 5.7779-3.6768 11.661-7.1086 17.824-10.05 1.1556-0.56028 2.2411-1.2956 3.1866-2.1361 1.2956-1.1206 1.7859-2.6263 1.1906-4.2721-0.5953-1.6808-2.1711-1.996-3.7469-1.996-1.4357 0.03502-2.9065 0.14007-4.3422 0.24512-6.7934 0.52526-13.552 1.0855-20.345 1.5758-7.1786 0.52526-14.392 0.94547-21.606 1.4007zm-18.979 95.773c-0.94547-1.1206-1.7859-2.066-2.5563-3.0815-3.5718-4.5523-7.0035-9.2096-9.7349-14.357-1.8559-3.5018-3.8519-6.9685-4.7974-10.855-0.35018-1.4357-0.52526-2.9765-0.5953-4.4822-0.17509-3.6068 1.7859-6.1631 4.4122-8.3342 0.10505-0.07 0.24512-0.14007 0.45523-0.24512 0.35018 0.63032 0.66533 1.2256 0.98049 1.8559 3.957 8.1941 8.6143 15.933 13.447 23.602 0.70035 1.1206 1.4707 2.2411 2.1711 3.3967 0.14007 0.24512 0.2101 0.73537 0.10505 0.98049-1.7859 3.4667-3.0115 7.1086-3.6418 10.925-0.07004 0.14007-0.10505 0.24513-0.24512 0.5953zm164.44-41.881c0.77038 0.70035 1.5058 1.2256 2.101 1.926 1.4007 1.7159 2.7314 3.6068 2.7664 5.8829 0.035 1.7859-0.14007 3.6768-0.63031 5.3577-1.7859 6.058-4.9725 11.451-8.4742 16.598-2.3812 3.5018-5.0075 6.8634-7.5638 10.26-0.28014 0.3852-0.66534 0.73537-1.1206 1.1906-0.28014-1.2256-0.38519-2.2761-0.73536-3.2566-0.91046-2.5913-1.891-5.1826-2.9415-7.7389-0.28014-0.70035-0.24513-1.1556 0.10505-1.7509 3.3967-5.4627 6.8284-10.925 10.085-16.493 2.1361-3.6418 3.992-7.4587 5.988-11.171 0.07-0.17509 0.2101-0.42021 0.42021-0.8054zm-161.29-39.955c-0.45523 7.1086-0.87544 14.252-1.3657 21.361-0.10505 1.5058-0.31516 3.0115-0.45523 4.5173-0.07003 0.5953-0.28014 0.87544-0.91046 0.77038-1.6108-0.24512-3.2216-0.38519-4.7974-0.73536-0.45523-0.10506-1.0855-0.63032-1.2256-1.0856-0.49024-1.8209-0.87544-3.6418-1.1206-5.4978-0.8054-6.4432-0.91046-12.886-0.07004-19.33 0.45523-3.6418 1.0855-7.2836 1.6458-10.925 0.07004-0.49024 0.24512-0.98049 0.42021-1.4357 0.52526-1.6458 0.56028-1.7159 2.2411-1.7859 1.5058-0.07004 3.0115 0 4.5173-0.03502 0.70035 0 1.0155 0.2101 1.0155 1.0155-0.03502 4.3772-0.03502 8.7894-0.03502 13.167zm145.29-2.5213v-11.101c0-0.56028 0.17509-0.8054 0.70035-0.8054 1.891 0 3.8169 0 5.7079 0.03502 0.5953 0 1.0155 0.31516 1.1556 0.91046 0.59529 2.7314 1.4007 5.4277 1.8209 8.1591 1.1206 7.3887 1.5758 14.812 0.70035 22.236-0.31516 2.4862-0.98049 4.9375-1.4707 7.3887-0.17509 0.84042-0.70035 1.2956-1.5408 1.3657-1.3657 0.17509-2.7314 0.31516-4.062 0.56028-0.91046 0.17509-1.1206-0.28014-1.1906-1.0505-0.24512-2.7664-0.59529-5.4978-0.77038-8.2641-0.45523-6.2331-0.73537-12.571-1.0505-19.435zm1.4007 32.321c1.2606 0.98049 2.5563 1.996 3.887 2.9765 0.49024 0.38519 0.17509 0.70035 0 1.0155-1.1556 2.1711-2.3462 4.3422-3.5018 6.5132-3.3617 6.2681-7.2486 12.256-11.136 18.174-0.45523 0.70035-0.94547 1.3657-1.4707 2.031-0.14007 0.17508-0.42021 0.35017-0.59529 0.31515-1.6108-0.45522-3.2216-0.94547-4.9375-1.5058 0.35017-0.91045 0.63031-1.8209 1.0505-2.6263 2.3112-4.2021 4.5523-8.5093 7.0735-12.571 2.2061-3.5018 4.8324-6.7234 7.1786-10.12 0.91045-1.3307 1.6458-2.8014 2.4512-4.2021zm-148.09 0.24512c0.45523 0.91046 0.8054 1.926 1.4007 2.8014 2.2061 3.1516 4.4822 6.2331 6.6883 9.3497 3.6768 5.2176 6.8284 10.785 9.4197 16.633 0.38519 0.84042 0.31516 0.94547-0.5953 1.1906-1.2606 0.35018-2.5213 0.77039-3.7819 1.0855-0.28014 0.07-0.77038-0.035-0.91046-0.24512-2.4512-3.7118-5.0075-7.3537-7.2836-11.171-3.0465-5.0775-5.8479-10.26-8.7894-15.373-0.38519-0.66533-0.35018-1.0505 0.31516-1.5058 1.2256-0.84042 2.3812-1.8209 3.5368-2.7664z" stroke-width=".35018"/>
 <path class="prefix__cpt" d="m7.2986 140.53c-1.2256-0.70035-2.066-1.6808-2.6963-2.8364-2.8364-5.2526-3.6768-10.785-2.066-16.563 0.94547-3.3267 3.0815-5.883 5.6728-8.054 2.4512-2.031 5.0775-3.8519 8.019-5.1476 0.52526-0.24512 0.87544-0.28014 1.4007 0.10506 1.4707 1.0505 3.2566 1.1556 4.9725 1.3657 0.5953 0.07 1.1556 0.14007 1.926 0.24512-0.28014 0.42021-0.45523 0.77039-0.70035 1.0155-0.8054 0.70035-1.6808 1.4007-2.5213 2.066-0.2101 0.17509-0.45523 0.24513-0.5953 0.45523-1.5058 1.996-3.8169 2.8714-5.7779 4.2021-2.4162 1.6808-4.9725 3.1516-6.9335 5.3927-3.0465 3.4317-3.8169 7.3887-2.7314 11.731 0.42021 1.7509 1.1556 3.4317 1.7509 5.1826 0.070035 0.28014 0.17509 0.56028 0.28014 0.84042zm185.49-0.52527c0.52527-1.4707 1.1206-2.9064 1.6108-4.3772 1.0505-3.3967 1.4357-6.7934-0.17509-10.155-1.2956-2.6964-3.3267-4.7274-5.8479-6.3032-2.4162-1.5058-4.8324-3.0465-7.2136-4.5873-0.42021-0.28014-0.73537-0.77038-1.1206-1.1556-0.24512-0.24512-0.49025-0.45522-0.73537-0.63031-1.0155-0.77039-2.066-1.5408-3.0465-2.3462-0.28014-0.24512-0.45523-0.59529-0.80541-1.0505 1.1906-0.17509 2.2061-0.28014 3.2216-0.45523 1.4357-0.24512 2.8714-0.45523 4.062-1.4707 0.17508-0.14007 0.73536 0.035 1.0505 0.17508 3.4667 1.4707 6.4082 3.7119 9.1396 6.3032 4.4122 4.1671 5.8129 9.3497 5.0775 15.198-0.42021 3.3617-1.3657 6.5132-3.3617 9.2796-0.45523 0.63031-1.0505 1.1906-1.6108 1.7509-0.10506-0.07-0.17509-0.14007-0.24513-0.17509zm-162.34-6.7934c0.8054 1.2956 1.5758 2.4512 2.3112 3.6418 0.07003 0.10505-0.07004 0.49024-0.2101 0.5953-2.5213 1.5408-5.0075 3.0465-7.5638 4.5172-0.17509 0.10506-0.66533-0.07-0.77038-0.24512-0.63032-0.94547-1.2256-1.961-1.7509-2.9415-0.10505-0.2101-0.03502-0.70035 0.10505-0.8054 2.5563-1.6108 5.1476-3.1516 7.8789-4.7624zm136.53 3.5718c0.8054-1.2256 1.5058-2.3462 2.2061-3.4317 0.21011-0.35018 0.45523-0.42021 0.8054-0.21011 2.4162 1.4357 4.8674 2.8714 7.2836 4.3422 0.17508 0.10506 0.31515 0.5953 0.2101 0.77039-0.56028 1.0505-1.1556 2.066-1.7859 3.0465-0.10506 0.17509-0.5953 0.31516-0.77039 0.21011-2.5563-1.4707-5.0425-2.9765-7.5988-4.4822-0.07-0.07-0.14007-0.14007-0.35017-0.24513zm-139.51-8.5092c0.66533 1.0855 1.2956 2.1711 1.961 3.2216 0.2101 0.35017 0.17509 0.5953-0.2101 0.8054-2.4162 1.4357-4.8674 2.9064-7.2486 4.3422-0.45523 0.28014-0.70035 0.21011-0.94547-0.24512-0.49024-0.91046-1.0155-1.8209-1.5058-2.6964-0.2101-0.38519-0.2101-0.66533 0.17509-0.91045 2.4862-1.4707 4.9375-2.9415 7.4237-4.4122 0.07003-0.07 0.17509-0.07 0.35018-0.10505zm151.1 8.2992c-2.8014-1.6808-5.4978-3.2916-8.2992-4.9375 0.73537-1.2256 1.3657-2.3462 2.101-3.4317 0.07-0.14007 0.45523-0.2101 0.5953-0.10505 2.4512 1.4357 4.9024 2.9064 7.3537 4.3772 0.14007 0.10505 0.28014 0.49024 0.2101 0.5953-0.63031 1.1556-1.2606 2.2761-1.961 3.5018zm-151.91-9.8049c-0.2101 0.07-0.49024 0.14007-0.70035 0.28014-2.3812 1.4357-4.7274 2.8364-7.0735 4.3072-0.42021 0.24512-0.66533 0.10505-0.84042-0.28014-0.38519-0.77039-0.8054-1.5408-1.2256-2.2761-0.24512-0.42021-0.07004-0.66533 0.28014-0.87544 2.3462-1.4357 4.7274-2.8714 7.0735-4.3072 0.14007-0.10505 0.49024-0.14007 0.52526-0.07 0.56028 0.91046 1.1556 1.891 1.961 3.2216zm148.75-3.7469c0.24512 0.14007 0.38519 0.21011 0.52526 0.28014 2.2761 1.3657 4.5173 2.7664 6.8284 4.097 0.52527 0.31516 0.66534 0.5953 0.31516 1.1206-0.45523 0.70035-0.8054 1.4707-1.2606 2.1711-0.10505 0.17508-0.5953 0.31515-0.77038 0.2101-2.3462-1.4007-4.6924-2.8014-7.0385-4.2371-0.45523-0.28014-0.52527-0.5953-0.24513-1.0505 0.42021-0.70035 0.80541-1.4707 1.2606-2.1711 0.07-0.14007 0.24513-0.28014 0.3852-0.42021zm-150.05 20.59c1.2956-0.80541 2.5213-1.5758 3.7469-2.3462 1.3657-0.8054 2.7664-1.5758 4.1321-2.4162 0.49024-0.31516 0.73537-0.17509 1.0155 0.24512 0.14007 0.24512 0.31516 0.45523 0.45523 0.70035 1.4007 2.101 1.2256 1.5408-0.5953 2.6964-1.996 1.2606-4.062 2.4512-6.058 3.7469-0.70035 0.45523-1.0155 0.28014-1.3657-0.38519-0.42021-0.73537-0.84042-1.4357-1.3307-2.2411zm140.77-5.5328c2.6964 1.6108 5.2176 3.1516 7.7739 4.6573 0.56028 0.35017 0.63032 0.63031 0.24513 1.1906-0.42021 0.56029-0.73537 1.1906-1.0856 1.7859-0.24512 0.42021-0.52526 0.45523-0.87543 0.2101-2.4512-1.5058-4.9025-2.9765-7.3537-4.5173-0.17509-0.10505-0.35018-0.59529-0.28014-0.77038 0.42021-0.84042 0.98049-1.6458 1.5758-2.5563z" stroke-width=".35018"/>
 <path class="prefix__cpt" d="m184.24 126.28c-2.5913-1.5758-5.0775-3.0465-7.5288-4.5173-0.45523-0.28014-0.49025-0.56028-0.21011-0.94547 0.21011-0.31516 0.38519-0.70035 0.56028-1.0155 0.52526-0.94547 0.52526-0.94547 1.4707-0.38519 2.101 1.2606 4.2021 2.5563 6.3382 3.7819 0.59529 0.35017 0.73536 0.73537 0.38519 1.2956-0.35018 0.56028-0.66533 1.1206-1.0155 1.7859zm-160.49-4.4822c-2.6963 1.6458-5.3227 3.2566-8.089 4.9375-0.38519-0.84042-0.77038-1.5758-1.0505-2.3462-0.07004-0.14007 0.14007-0.49024 0.31516-0.59529 2.3112-1.4357 4.6573-2.8714 7.0035-4.2721 0.17509-0.10505 0.5953-0.035 0.66533 0.07 0.38519 0.70035 0.73537 1.4007 1.1556 2.2061zm-10.085 0.98049c-0.28014-0.63032-0.56028-1.1206-0.73537-1.6808-0.07004-0.17509 0.07003-0.52527 0.2101-0.63032 2.4162-1.6108 4.8324-3.1866 7.3537-4.8324 0.38519 0.73536 0.73537 1.2956 1.0155 1.8909 0.07003 0.14007-0.03502 0.52526-0.17509 0.63032-2.5213 1.5408-5.0425 3.0465-7.6688 4.6223zm173.55-2.3112c-0.31516 0.5953-0.52526 1.1556-0.84042 1.6458-0.07 0.10505-0.45523 0.07-0.63032-0.035-2.3112-1.3657-4.5873-2.7664-6.8984-4.1321-0.45522-0.28014-0.45522-0.52526-0.28014-0.94547 0.73537-1.6808 0.73537-1.7159 2.3112-0.77039 1.961 1.1906 3.8869 2.4512 5.8129 3.6768 0.17508 0.14007 0.35017 0.35018 0.52526 0.56028zm-16.493 28.609c-1.1556-1.1906-2.1361-2.3462-3.2566-3.3267-1.0155-0.87544-2.1711-1.5408-3.2916-2.2761-0.24513-0.14007-0.52527-0.24513-0.73537-0.42021-0.10505-0.10506-0.14007-0.31516-0.17509-0.49025 0.17509 0 0.38519-0.10505 0.52526-0.035 0.63032 0.31516 1.2256 0.66534 1.8209 1.0505 1.7859 1.0855 3.5718 2.2061 5.3227 3.3267 0.94547 0.5953 0.94547 0.5953 0.28014 1.5408-0.14007 0.21011-0.31516 0.42021-0.49025 0.63032zm-141.51 0.52526c-0.31516-0.45523-0.52526-0.8054-0.77038-1.1206-0.28014-0.38519-0.17509-0.63031 0.2101-0.87544 2.4862-1.5408 5.0075-3.0815 7.4937-4.6223 0.14007-0.07 0.42021 0.035 0.5953 0.035-0.14007 0.17509-0.2101 0.42021-0.38519 0.52526-1.3657 0.91046-2.8014 1.7509-4.097 2.7664-0.94547 0.77038-1.6808 1.7859-2.5213 2.6963-0.10505 0.17509-0.24512 0.31516-0.52526 0.5953z" stroke-width=".35018"/>
 <path d="m124.89 176.18c-0.14007-0.24512-0.17509-0.38519-0.28014-0.45523-2.2061-1.7509-3.1866-4.3072-4.3072-6.7234-2.1361-4.6573-4.1321-9.3497-6.3032-14.007-1.1206-2.4512-2.4512-4.7974-4.4472-6.6533-2.2411-2.101-4.9725-3.0815-7.984-3.2566-2.9415-0.17508-5.8479 0.14007-8.4392 1.6458-2.2061 1.2956-3.8519 3.1866-5.0775 5.3577-1.2606 2.2061-2.3812 4.5173-3.4317 6.7934-2.1361 4.6223-4.1671 9.2796-6.3382 13.902-0.52526 1.1206-1.4707 2.066-2.2411 3.1166-0.14007 0.21011-0.31516 0.3852-0.42021 0.77039 0.70035-0.07 1.4007-0.10505 2.101-0.21011 0.70035-0.10505 1.3657-0.2101 2.066-0.31515 0.73537-0.10506 1.2606 0.17508 1.6108 0.8054 1.6458 3.3267 2.6263 6.8284 3.1166 10.505 0.31516 2.3812-0.87544 4.1321-2.4862 5.7079-1.926 1.8559-4.2371 2.9765-6.7234 3.8519-4.2371 1.5408-8.6143 2.066-13.062 1.7859-6.8984-0.42021-12.991-2.8364-17.789-8.089-4.9375-5.4277-4.9025-15.513 2.9065-20.275 3.8869-2.3812 8.1941-2.7664 12.641-1.3657 3.1866 1.0155 5.7429 2.9064 8.089 5.2176 1.1906 1.1556 2.6613 1.7158 4.3422 1.6458 1.996-0.07 3.3967-1.2256 4.2371-2.8714 1.7159-3.3967 3.2916-6.8634 4.9025-10.295 1.6108-3.4667 3.1166-7.0035 4.8324-10.435 1.3657-2.6613 3.1516-5.0775 5.8829-6.4782 5.6378-2.8714 11.276-3.0465 16.773 0.42021 2.1361 1.3307 3.6068 3.3967 4.7274 5.5678 1.6108 3.1166 3.0465 6.3382 4.5173 9.5598 1.3657 3.0115 2.6613 6.058 4.062 9.0345 0.52526 1.0855 1.2256 2.066 1.8909 3.0465 1.926 2.8714 5.6728 2.4862 7.949 0.42021 1.3657-1.2606 2.7314-2.5913 4.3422-3.5718 5.5678-3.3967 11.836-3.4667 17.054 0.07 4.5873 3.1166 6.4782 9.1046 4.9375 14.462-1.1206 3.957-3.6768 6.7234-6.9335 8.9645-5.1476 3.5368-10.925 4.6573-17.089 4.3772-4.3772-0.21011-8.5793-1.1206-12.571-3.0115-1.961-0.94547-3.6068-2.3112-4.9375-4.062-1.2956-1.7159-1.2256-3.6068-0.84042-5.5328 0.5953-3.0115 1.4007-5.988 2.7314-8.7894 0.31516-0.70035 0.84042-1.1206 1.6458-0.98049 1.0855 0.14007 2.1711 0.31516 3.2216 0.45523 0.35017-0.07 0.66533-0.10506 1.1206-0.10506zm-12.886-112.02c5.0775 0.38519 10.155 0.8054 15.233 1.1556 5.5678 0.38519 11.171 0.77038 16.773 1.0855 4.9024 0.28014 9.7699 0.45523 14.672 0.70035 0.24512 0 0.49024 0.03502 0.73536 0.10505 1.7159 0.38519 2.3462 1.1906 2.3112 2.9415-0.10505 3.1166-0.73537 6.1631-1.6808 9.1396-0.91046 2.8014-1.8559 5.5678-3.0115 8.2641-0.66533 1.5058-1.6108 2.9415-2.6613 4.2371-2.1361 2.6963-4.9024 3.1866-8.019 1.4707-2.5563-1.4007-5.0425-3.0115-7.5288-4.5523-6.093-3.7469-12.116-7.5988-18.279-11.276-3.3267-1.961-6.8284-3.6068-10.225-5.3927-0.77038-0.42021-1.5058-0.84042-2.2061-1.3657-1.5758-1.2256-2.101-3.4317-1.2256-4.9725 0.66533-1.2256 1.926-1.3307 3.1166-1.5058 0.66533-0.10505 1.3307 0 1.996 0zm37.889 28.259c0.94547 0.14007 1.961-0.17509 2.6613-0.98049 0.84042-0.94547 1.6458-1.996 2.2761-3.0815 2.066-3.5368 3.4667-7.3187 4.3772-11.311 0.49024-2.2061 0.77038-4.4472 1.1206-6.6883 0.10505-0.63032-0.14007-1.2606-0.8054-1.5058-0.49025-0.2101-0.80541-0.17509-0.91046 0.52526-0.98049 5.5678-2.3462 11.066-4.5173 16.318-0.66533 1.5758-1.5408 3.1166-2.4162 4.5873-0.49024 0.77038-1.1906 1.4357-1.7859 2.1361zm-106.7-25.073c7.2136-0.45523 14.427-0.87544 21.641-1.3657 6.7934-0.49024 13.552-1.0505 20.345-1.5758 1.4357-0.10505 2.9065-0.24512 4.3422-0.24512 1.5758-0.03502 3.1166 0.28014 3.7469 1.996 0.5953 1.6108 0.07004 3.1516-1.1906 4.2721-0.94547 0.84042-2.031 1.6108-3.1866 2.1361-6.1631 2.9415-12.046 6.3732-17.824 10.05-5.3927 3.4317-10.785 6.8284-16.178 10.225-0.63032 0.38519-1.3657 0.66533-2.031 1.0155-3.0815 1.5758-5.8129 0-7.4587-2.1361-1.926-2.4862-3.2216-5.3227-4.1321-8.2992-0.98049-3.2216-1.8209-6.5133-2.6613-9.8049-0.28014-1.0855-0.28014-2.2061-0.35018-3.3267-0.14007-2.2061 1.2956-2.8714 2.9415-2.9765 0.66533-0.03502 1.3307 0 2.031 0-0.03502 0-0.03502 0-0.03502 0.03502zm6.7234 25.178c-0.24512-0.35018-0.38519-0.52526-0.49024-0.70035-0.77039-1.1556-1.7159-2.2061-2.3112-3.4667-2.8364-5.953-4.6923-12.186-5.7429-18.699-0.03502-0.28014-0.2101-0.70035-0.35018-0.70035-0.28014-0.03502-0.70035 0.10505-0.91046 0.31516-0.24512 0.24512-0.45523 0.66533-0.45523 1.0155-0.03502 0.77038 0 1.5758 0.10505 2.3462 0.52526 3.4317 1.4357 6.7584 2.6963 10.015 1.1206 2.9065 2.3462 5.7429 4.2721 8.2291 0.70035 0.94547 1.7159 1.5058 3.1866 1.6458z" stroke-width=".35018"/>
 <path class="prefix__cpt" d="m149.89 92.42c0.5953-0.70035 1.2956-1.3657 1.7859-2.1711 0.87544-1.4707 1.7509-2.9765 2.4162-4.5873 2.1711-5.2526 3.5368-10.715 4.5173-16.318 0.10505-0.70035 0.42021-0.70035 0.91046-0.52526 0.66533 0.28014 0.91045 0.87544 0.8054 1.5058-0.31516 2.2411-0.63032 4.4822-1.1206 6.6883-0.91046 3.957-2.3112 7.7739-4.3772 11.311-0.63031 1.0855-1.4357 2.1361-2.2761 3.0815-0.70035 0.84042-1.7159 1.1556-2.6613 1.0155zm-99.975 0.10505c-1.4707-0.14007-2.4512-0.70035-3.2216-1.6458-1.926-2.4862-3.1866-5.3227-4.2721-8.2291-1.2256-3.2566-2.1711-6.5833-2.6963-10.015-0.10505-0.77038-0.14007-1.5758-0.10505-2.3462 0-0.35018 0.21011-0.77038 0.45523-1.0155 0.2101-0.2101 0.5953-0.35018 0.91046-0.31516 0.14007 0 0.31516 0.45523 0.35018 0.70035 1.0505 6.4782 2.9065 12.746 5.7429 18.699 0.5953 1.2256 1.5408 2.3112 2.3112 3.4667 0.14007 0.17509 0.24512 0.35018 0.52526 0.70035z" stroke-width=".35018"/>
</svg>
