<svg width="200" height="205.62" version="1.1" viewBox="0 0 200 205.62" xmlns="http://www.w3.org/2000/svg">
 <g>
  <path d="m91.08 0v69.27c0 8.2516-3.156 20.803 8.5401 20.702 11.404-0.09916 8.5401-12.75 8.5401-20.702v-69.27h-17.08m-90.146 170.8h0.9489c3.7834-29.91 16.594-83.068 51.241-90.46 13.194-2.8148 23.664 3.8733 36.058 6.0075-2.2347-14.142-31.165-13.285-41.752-13.285v-0.9489c15.316-1.2087 26.349 1.7527 40.803 6.6423l-1.8978-75.912c-25.15 1.0965-45.117 17.069-52.155 40.803-2.8115 9.4806-1.7638 20.289-5.2227 29.416-8.532 22.513-22.767 42.415-27.597 66.423-2.1835 10.853-1.2846 20.436-0.42612 31.314m111.02-167.96-1.8978 55.985v19.927c14.454-4.8896 25.487-7.851 40.803-6.6423v0.9489c-10.626 0-39.507-0.923-41.752 13.285 13.529-2.3296 24.597-9.2654 38.905-5.4188 11.55 3.1052 19.027 11.917 25.293 21.55 12.731 19.573 20.127 44.343 23.101 67.372 9.6892-16.069-2.5848-43.634-9.0895-58.832-5.5653-13.004-13.855-25.519-18.329-38.905-3.323-9.9424-2.285-21.131-5.552-31.314-7.1576-22.306-28.127-36.938-51.482-37.956m-106.28 169.85 49.343 7.5912c1.989 6.9146 10.425 7.4698 16.131 10.705 7.2738 4.123 19.926 15.033 28.467 14.61 8.1065-0.40139 18.668-9.5422 25.62-13.528 5.8338-3.3439 16.038-4.9049 18.029-11.786l50.292-7.5912c-5.2778-28.013-11.632-67.721-37.956-84.326-20.091-12.673-35.774 3.886-55.036 5.354-14.354 1.0931-27.314-11.769-42.701-9.9521-35.099 4.1437-52.106 58.455-52.19 88.924m58.832-86.038c7.4293-0.65161 21.345 2.9839 25.594 9.6686 7.2079 11.339-5.6822 19.202-15.156 20.219-7.9443 0.85401-23.951 1.5239-29.789-5.1848-8.4293-9.6864 11.327-23.999 19.351-24.703m66.423 0.1208c9.544-0.24909 29.819 11.983 22.743 24.025-3.7244 6.3406-17.37 6.1005-23.692 6.1821-6.4108 0.0826-16.889-0.92992-21.253-6.3387-11.096-13.753 11.972-23.602 22.201-23.869m-27.518 13.801h-8.5401c2.9834-3.0327 5.5568-3.0327 8.5401 0m0.9489 4.7445v0.94891h-9.489c2.5943-3.862 5.7968-2.9302 9.489-0.94891m0 6.6423h-10.438c3.4436-3.8611 6.9403-3.7709 10.438 0m-52.19 6.6423 28.467 0.94891v0.9489c-7.2558 2.0392-14.299 2.8979-21.825 2.8458-3.5242-0.0237-8.1455-0.15657-6.6423-4.7436m94.89 0c-1.5847 9.4957-22.926 3.7216-29.416 1.8978v-0.9489l29.416-0.94891m-14.234 56.934c-6.2741-5.3395-9.4966-14.255-14.382-20.876-2.2394-3.0355-4.6923-5.8728-7.447-8.4547-22.146-20.761-32.371 18.046-45.543 29.331-2.393-14.531 19.606-26.333 25.594-37.168 2.6379-4.772-0.32737-14.496 8.5638-13.876 8.1368 0.56745 5.0007 9.1351 7.6206 13.876 5.8822 10.644 27.901 22.978 25.594 37.168m-37.956-38.905h8.5401c-9e-3 -11.884-8.5306-11.884-8.5401 0m-9.489-9.489-23.723 33.212h-1.8978l-12.336-30.365 37.956-2.8467m65.474 2.8467-12.336 30.365h-1.8978l-23.723-33.212 37.956 2.8467m-100.58 1.8978 10.438 23.723 21.825-26.569-32.263 2.8467m65.474-2.8467c4.5737 7.9119 14.62 21.479 22.774 25.62l9.489-22.774-32.263-2.8467m-70.219 8.5401 16.131 36.058c-4.2422-1.336-4.9471-4.6335-6.463-8.5401-2.9672-7.6481-10.349-19.336-9.6684-27.518m43.649 0.9489-26.569 31.314c0.36884-11.604 16.568-26.657 26.569-31.314m63.576 0c-1.9253 8.3219-7.4944 32.39-16.131 35.109l16.131-35.109m-41.752 0.9489c9.3192 6.1641 24.29 18.361 24.671 30.365l-16.168-19.927-8.5031-10.438m-16.131 6.6423v32.263h8.5401v-32.263c7.3568 3.9607 4.5813 24.354 4.7445 32.263h8.5401v-18.978h0.9489c3.6125 5.9449 2.8467 12.242 2.8467 18.978h9.489v3.7956c-18.994 0-44.45 4.4238-62.627-0.9489v-1.8978l10.438-0.9489c0-6.5522-1.5411-14.269 3.7956-18.978v18.978h8.5401c0.0057-7.9309-2.712-28.249 4.7445-32.263m-33.253 31.481c3.1412 0.47445 2.2379 5.1374-0.80903 4.6525-3.0539-0.48489-2.2008-5.107 0.80903-4.6525m75.788 0c3.0431 0.46116 2.3637 5.1364-0.69839 4.6525-3.0868-0.48679-2.4045-5.1231 0.69839-4.6525z" fill="#050505"/>
 </g>
</svg>
